<svg width="27" height="23" viewBox="0 0 27 23" fill="none" xmlns="http://www.w3.org/2000/svg">
<path d="M3.46937 0H23.6316C24.5319 0 25.3779 0.350526 26.013 0.986316C26.6583 1.63084 27.0096 2.49147 26.9998 3.40574C26.9799 5.25942 25.437 6.73684 23.5832 6.73684H22.7895V19.7895C22.7895 21.4173 21.4699 22.7368 19.8421 22.7368H18.4211C18.2757 22.7368 18.1579 22.619 18.1579 22.4737V4.05263C18.1579 3.90732 18.2757 3.78947 18.4211 3.78947H21.9474C22.4125 3.78947 22.7895 4.16647 22.7895 4.63158V5.05263H23.5983C24.5224 5.05263 25.2997 4.32221 25.3155 3.39821C25.3234 2.93695 25.1477 2.50247 24.8221 2.17721C24.5045 1.85932 24.0817 1.68421 23.6316 1.68421H3.45442C2.53026 1.68421 1.75295 2.41463 1.73711 3.33863C1.72921 3.79989 1.90495 4.23437 2.23047 4.55958C2.54811 4.87753 2.9709 5.05263 3.42105 5.05263H4.26316V4.63158C4.26316 4.16647 4.64016 3.78947 5.10526 3.78947H16.2105C16.3558 3.78947 16.4737 3.90732 16.4737 4.05263V22.4737C16.4737 22.619 16.3558 22.7368 16.2105 22.7368H7.21053C5.58274 22.7368 4.26316 21.4173 4.26316 19.7895V6.73684H3.42105C2.52074 6.73684 1.67469 6.38632 1.03958 5.75053C0.394371 5.106 0.0430527 4.24547 0.0528431 3.33126C0.0726852 1.47747 1.61558 0 3.46937 0Z" fill="white"/>
</svg>
