<svg width="19" height="11" viewBox="0 0 19 11" fill="none" xmlns="http://www.w3.org/2000/svg">
<path d="M15.1 1.317L9.98901 6.428C9.79468 6.62256 9.53099 6.73188 9.25601 6.73188C8.98103 6.73188 8.71733 6.62256 8.52301 6.428L3.41201 1.317C2.62725 0.559057 1.37984 0.569896 0.60837 1.34136C-0.163098 2.11283 -0.173937 3.36024 0.584007 4.145L5.70001 9.256C6.64444 10.2004 7.92537 10.731 9.26101 10.731C10.5966 10.731 11.8776 10.2004 12.822 9.256L17.933 4.145C18.7139 3.36379 18.7137 2.09743 17.9325 1.3165C17.1513 0.53557 15.8849 0.535794 15.104 1.317H15.1Z" fill="#555555"/>
</svg>
