<svg width="17" height="17" viewBox="0 0 17 17" fill="none" xmlns="http://www.w3.org/2000/svg">
<path fill-rule="evenodd" clip-rule="evenodd" d="M0 8.5C0 3.81291 3.81291 0 8.5 0C13.1871 0 17 3.81291 17 8.5C17 13.1871 13.1871 17 8.5 17C3.81291 17 0 13.1871 0 8.5ZM12.0417 13.1042C12.223 13.1042 12.4044 13.0347 12.5425 12.8966C12.8194 12.6197 12.8194 12.1721 12.5425 11.895L9.20829 8.56096V4.25C9.20829 3.85831 8.89104 3.54171 8.5 3.54171C8.10896 3.54171 7.79171 3.85831 7.79171 4.25V8.85421C7.79171 9.04253 7.86603 9.22256 7.99923 9.35498L11.5409 12.8966C11.6789 13.0347 11.8604 13.1042 12.0417 13.1042Z" fill="#2CA062"/>
</svg>
