<svg width="27" height="27" viewBox="0 0 27 27" fill="none" xmlns="http://www.w3.org/2000/svg">
<path d="M10.406 0H1.969C0.882008 0.00110243 0.00110243 0.882008 0 1.969V7.031C0.00110243 8.11799 0.882008 8.9989 1.969 9H10.406C11.493 8.9989 12.3739 8.11799 12.375 7.031V1.969C12.3739 0.882008 11.493 0.00110243 10.406 0Z" fill="#2CA062"/>
<path d="M10.406 11.25H1.969C0.882008 11.2511 0.00110243 12.132 0 13.219V25.032C0.00165333 26.1186 0.882398 26.9989 1.969 27H10.406C11.493 26.9989 12.3739 26.118 12.375 25.031V13.219C12.3739 12.132 11.493 11.2511 10.406 11.25Z" fill="#2CA062"/>
<path d="M25.031 18H16.594C15.507 18.0011 14.6261 18.882 14.625 19.969V25.032C14.6267 26.1186 15.5074 26.9989 16.594 27H25.032C26.1186 26.9983 26.9989 26.1176 27 25.031V19.969C26.9989 18.882 26.118 18.0011 25.031 18V18Z" fill="#2CA062"/>
<path d="M25.031 0H16.594C15.507 0.00110243 14.6261 0.882008 14.625 1.969V13.781C14.6261 14.868 15.507 15.7489 16.594 15.75H25.032C26.1186 15.7483 26.9989 14.8676 27 13.781V1.969C26.9989 0.882008 26.118 0.00110243 25.031 0V0Z" fill="#2CA062"/>
</svg>
