<svg width="30" height="30" viewBox="0 0 30 30" fill="none" xmlns="http://www.w3.org/2000/svg">
<path fill-rule="evenodd" clip-rule="evenodd" d="M15 30C23.2843 30 30 23.2843 30 15C30 6.71573 23.2843 0 15 0C6.71573 0 0 6.71573 0 15C0 23.2843 6.71573 30 15 30Z" fill="#35BB84"/>
<path d="M13.7412 20.4324C13.5981 20.5763 13.4028 20.6567 13.2 20.6567C12.9971 20.6567 12.8019 20.5763 12.6588 20.4324L8.33642 16.1093C7.88786 15.6608 7.88786 14.9334 8.33642 14.4857L8.87764 13.9443C9.32635 13.4957 10.0529 13.4957 10.5014 13.9443L13.2 16.643L20.4918 9.35101C20.9405 8.90245 21.6678 8.90245 22.1156 9.35101L22.6568 9.89237C23.1054 10.3409 23.1054 11.0682 22.6568 11.516L13.7412 20.4324Z" fill="white"/>
</svg>
