<svg width="97" height="16" viewBox="0 0 97 16" fill="none" xmlns="http://www.w3.org/2000/svg">
<path d="M16.652 6.046C16.5425 5.70855 16.2423 5.46893 15.889 5.437L11.069 4.999L9.16901 0.539997C9.02925 0.21312 8.70801 0.00109863 8.35251 0.00109863C7.99701 0.00109863 7.67577 0.21312 7.53601 0.539997L5.63601 4.999L0.816007 5.437C0.460984 5.4662 0.157672 5.7045 0.0452867 6.04253C-0.0670991 6.38056 0.0331443 6.75304 0.300007 6.989L3.94501 10.184L2.87101 14.915C2.79178 15.2613 2.92687 15.6216 3.21432 15.8304C3.50177 16.0392 3.88609 16.0564 4.19101 15.874L8.34701 13.389L12.5 15.874C12.8051 16.056 13.1892 16.0387 13.4767 15.83C13.7641 15.6213 13.8996 15.2614 13.821 14.915L12.75 10.184L16.393 6.989C16.6602 6.7548 16.7621 6.38384 16.652 6.046Z" fill="#FFAA00"/>
<path d="M36.652 6.046C36.5425 5.70855 36.2423 5.46893 35.889 5.437L31.069 4.999L29.169 0.539997C29.0292 0.21312 28.708 0.00109863 28.3525 0.00109863C27.997 0.00109863 27.6758 0.21312 27.536 0.539997L25.636 4.999L20.816 5.437C20.461 5.4662 20.1577 5.7045 20.0453 6.04253C19.9329 6.38056 20.0331 6.75304 20.3 6.989L23.945 10.184L22.871 14.915C22.7918 15.2613 22.9269 15.6216 23.2143 15.8304C23.5018 16.0392 23.8861 16.0564 24.191 15.874L28.347 13.389L32.5 15.874C32.8051 16.056 33.1892 16.0387 33.4767 15.83C33.7641 15.6213 33.8996 15.2614 33.821 14.915L32.75 10.184L36.393 6.989C36.6602 6.7548 36.7621 6.38384 36.652 6.046Z" fill="#FFAA00"/>
<path d="M56.652 6.046C56.5425 5.70855 56.2423 5.46893 55.889 5.437L51.069 4.999L49.169 0.539997C49.0292 0.21312 48.708 0.00109863 48.3525 0.00109863C47.997 0.00109863 47.6758 0.21312 47.536 0.539997L45.636 4.999L40.816 5.437C40.461 5.4662 40.1577 5.7045 40.0453 6.04253C39.9329 6.38056 40.0331 6.75304 40.3 6.989L43.945 10.184L42.871 14.915C42.7918 15.2613 42.9269 15.6216 43.2143 15.8304C43.5018 16.0392 43.8861 16.0564 44.191 15.874L48.347 13.389L52.5 15.874C52.8051 16.056 53.1892 16.0387 53.4767 15.83C53.7641 15.6213 53.8996 15.2614 53.821 14.915L52.75 10.184L56.393 6.989C56.6602 6.7548 56.7621 6.38384 56.652 6.046Z" fill="#FFAA00"/>
<path d="M76.652 6.046C76.5425 5.70855 76.2423 5.46893 75.889 5.437L71.069 4.999L69.169 0.539997C69.0292 0.21312 68.708 0.00109863 68.3525 0.00109863C67.997 0.00109863 67.6758 0.21312 67.536 0.539997L65.636 4.999L60.816 5.437C60.461 5.4662 60.1577 5.7045 60.0453 6.04253C59.9329 6.38056 60.0331 6.75304 60.3 6.989L63.945 10.184L62.871 14.915C62.7918 15.2613 62.9269 15.6216 63.2143 15.8304C63.5018 16.0392 63.8861 16.0564 64.191 15.874L68.347 13.389L72.5 15.874C72.8051 16.056 73.1892 16.0387 73.4767 15.83C73.7641 15.6213 73.8996 15.2614 73.821 14.915L72.75 10.184L76.393 6.989C76.6602 6.7548 76.7621 6.38384 76.652 6.046Z" fill="#FFAA00"/>
<path d="M96.652 6.046C96.5425 5.70855 96.2423 5.46893 95.889 5.437L91.069 4.999L89.169 0.539997C89.0292 0.21312 88.708 0.00109863 88.3525 0.00109863C87.997 0.00109863 87.6758 0.21312 87.536 0.539997L85.636 4.999L80.816 5.437C80.461 5.4662 80.1577 5.7045 80.0453 6.04253C79.9329 6.38056 80.0331 6.75304 80.3 6.989L83.945 10.184L82.871 14.915C82.7918 15.2613 82.9269 15.6216 83.2143 15.8304C83.5018 16.0392 83.8861 16.0564 84.191 15.874L88.347 13.389L92.5 15.874C92.8051 16.056 93.1892 16.0387 93.4767 15.83C93.7641 15.6213 93.8996 15.2614 93.821 14.915L92.75 10.184L96.393 6.989C96.6602 6.7548 96.7621 6.38384 96.652 6.046Z" fill="#969696"/>
</svg>
