<svg width="26" height="30" viewBox="0 0 26 30" fill="none" xmlns="http://www.w3.org/2000/svg">
<path d="M24.9499 25.3038L22.8037 21.7263C21.8125 20.075 21.2887 18.1838 21.2887 16.2588V13.125C21.2887 9.16875 18.6487 5.82252 15.0387 4.74375V2.50002C15.0387 1.12125 13.9174 0 12.5386 0C11.1599 0 10.0386 1.12125 10.0386 2.50002V4.74375C6.42866 5.82252 3.78866 9.16875 3.78866 13.125V16.2588C3.78866 18.1838 3.26489 20.0737 2.27489 21.725L0.128662 25.3025C0.012412 25.4963 0.00989244 25.7363 0.121162 25.9325C0.232432 26.1288 0.438682 26.2501 0.663682 26.2501H24.4137C24.6387 26.2501 24.8461 26.1288 24.9574 25.9338C25.0687 25.7388 25.0649 25.4963 24.9499 25.3038Z" fill="#555555"/>
<path d="M8.60242 27.5C9.30742 28.9725 10.7999 30 12.5386 30C14.2773 30 15.7699 28.9725 16.4749 27.5H8.60242V27.5Z" fill="#555555"/>
<path d="M23.5 8C23.5 10.4853 21.4853 12.5 19 12.5C16.5147 12.5 14.5 10.4853 14.5 8C14.5 5.51472 16.5147 3.5 19 3.5C21.4853 3.5 23.5 5.51472 23.5 8Z" fill="#FC7100" stroke="#F9F9F9"/>
</svg>
