<svg width="27" height="28" viewBox="0 0 27 28" fill="none" xmlns="http://www.w3.org/2000/svg">
<path d="M24.7 18.93C24.317 18.7196 23.8359 18.8595 23.6255 19.2425C23.4151 19.6255 23.555 20.1066 23.938 20.317C24.88 20.835 25.421 21.408 25.421 21.891C25.421 22.482 24.584 23.397 22.235 24.191C19.4063 25.0533 16.4597 25.4659 13.503 25.414C10.5463 25.4659 7.5997 25.0533 4.771 24.191C2.422 23.391 1.585 22.477 1.585 21.891C1.585 21.408 2.125 20.834 3.068 20.317C3.45101 20.1066 3.59092 19.6255 3.3805 19.2425C3.17008 18.8595 2.68901 18.7196 2.306 18.93C1.255 19.507 0.00600052 20.489 0.00600052 21.891C0.00600052 22.965 0.745 24.497 4.265 25.691C7.25569 26.6087 10.3721 27.0504 13.5 27C16.6298 27.0517 19.7483 26.6107 22.741 25.693C26.261 24.493 27 22.965 27 21.893C27 20.489 25.748 19.507 24.7 18.93Z" fill="white"/>
<path d="M7.528 23.052C11.4541 23.99 15.5459 23.99 19.472 23.052C21.437 22.497 22.433 21.694 22.433 20.665C22.433 19.636 21.433 18.832 19.472 18.277C19.036 18.154 18.562 18.046 18.057 17.954C17.783 18.4273 17.496 18.9143 17.196 19.415C17.754 19.499 18.278 19.601 18.754 19.723C19.5242 19.8299 20.2472 20.157 20.836 20.665C20.2472 21.1729 19.5242 21.4999 18.754 21.607C17.1202 21.9859 15.4482 22.1755 13.771 22.172C13.681 22.179 13.591 22.182 13.5 22.182C13.409 22.182 13.318 22.182 13.228 22.172C11.5508 22.1756 9.8788 21.986 8.245 21.607C7.47446 21.5001 6.75116 21.173 6.162 20.665C6.7511 20.1569 7.47442 19.8298 8.245 19.723C8.721 19.602 9.245 19.499 9.803 19.415C9.503 18.9143 9.216 18.4273 8.942 17.954C8.442 18.046 7.963 18.154 7.527 18.277C5.562 18.832 4.566 19.635 4.566 20.665C4.566 21.695 5.563 22.5 7.528 23.052Z" fill="white"/>
<path fill-rule="evenodd" clip-rule="evenodd" d="M11.789 19.64C12.1511 20.2383 12.8006 20.6027 13.5 20.6C14.1994 20.6027 14.8489 20.2383 15.211 19.64C17.785 15.429 20.853 9.879 20.853 7.353C20.853 3.29205 17.5609 0 13.5 0C9.43905 0 6.147 3.29205 6.147 7.353C6.147 9.879 9.215 15.429 11.789 19.64ZM10.7653 5.71726C11.2235 4.61118 12.3028 3.89 13.5 3.89C15.1341 3.89165 16.4583 5.21592 16.46 6.85C16.46 8.04721 15.7388 9.12653 14.6327 9.58468C13.5267 10.0428 12.2535 9.78959 11.407 8.94304C10.5604 8.09648 10.3072 6.82333 10.7653 5.71726Z" fill="white"/>
</svg>
