<svg width="27" height="27" viewBox="0 0 27 27" fill="none" xmlns="http://www.w3.org/2000/svg">
<path d="M26.937 11.912C26.895 11.8104 26.8335 11.718 26.756 11.64L24.256 9.14005C23.9297 8.81956 23.406 8.82215 23.0828 9.14585C22.7597 9.46955 22.758 9.99326 23.079 10.319L24.156 11.397H19.501C19.0407 11.397 18.6675 11.7702 18.6675 12.2305C18.6675 12.6909 19.0407 13.064 19.501 13.064H24.156L23.079 14.141C22.8657 14.3509 22.7813 14.659 22.8579 14.9483C22.9346 15.2375 23.1605 15.4634 23.4498 15.5401C23.739 15.6168 24.0472 15.5324 24.257 15.319L26.757 12.819C26.8349 12.7414 26.8964 12.6489 26.938 12.547C27.0214 12.3435 27.021 12.1153 26.937 11.912Z" fill="white"/>
<path d="M20.78 15.751C20.1322 15.7251 19.5856 16.2283 19.558 16.876V22.5H14.668V4.50002C14.6543 3.98661 14.2995 3.54552 13.801 3.42202L9.552 2.25002H19.558V7.87502C19.6064 8.51439 20.1393 9.00845 20.7805 9.00845C21.4217 9.00845 21.9546 8.51439 22.003 7.87502V1.12502C21.9754 0.476888 21.4282 -0.0264893 20.78 2.45488e-05H1.223C1.18199 0.00487411 1.14127 0.0118839 1.101 0.0210245C1.04414 0.0263621 0.98769 0.035381 0.931999 0.0480246C0.808062 0.0769934 0.689103 0.124173 0.578999 0.188025C0.551999 0.200025 0.518999 0.200025 0.493999 0.223025C0.483999 0.230025 0.479999 0.242025 0.469999 0.249025C0.338122 0.341792 0.227363 0.461411 0.144999 0.600025C0.131649 0.632638 0.120295 0.666033 0.110999 0.700025C0.0655583 0.782596 0.0318984 0.871121 0.0109995 0.963025C0.00841158 0.996308 0.00841158 1.02974 0.0109995 1.06302C0.0169994 1.08202 0.000999451 1.10002 0.000999451 1.12502V23.625C0.0201377 24.1809 0.433742 24.6438 0.983999 24.725L13.207 26.975C13.2861 26.9905 13.3664 26.9982 13.447 26.998C13.7262 26.9993 13.9982 26.9098 14.222 26.743C14.4996 26.5395 14.6652 26.2172 14.669 25.873V24.751H20.78C21.4274 24.7764 21.9734 24.2733 22.001 23.626V16.876C21.9734 16.2287 21.4274 15.7256 20.78 15.751Z" fill="white"/>
</svg>
