<svg width="27" height="27" viewBox="0 0 27 27" fill="none" xmlns="http://www.w3.org/2000/svg">
<rect x="4.97" y="12.6" width="1.81" height="1.81" fill="white"/>
<path fill-rule="evenodd" clip-rule="evenodd" d="M2.909 27H24.091C25.6969 26.9984 26.9983 25.6969 27 24.091V8.36102H0V24.091C0.00165359 25.6969 1.30309 26.9984 2.909 27ZM3.47247 21.5664C3.6199 21.3179 3.89124 21.1697 4.18 21.18H22.82C23.2451 21.1952 23.5819 21.5442 23.5819 21.9695C23.5819 22.3949 23.2451 22.7439 22.82 22.759H4.18C3.89124 22.7693 3.6199 22.6211 3.47247 22.3726C3.32504 22.1241 3.32504 21.8149 3.47247 21.5664ZM4.18 17.79C3.7437 17.79 3.39 18.1437 3.39 18.58C3.39 19.0163 3.7437 19.37 4.18 19.37H22.82C23.2563 19.37 23.61 19.0163 23.61 18.58C23.61 18.1437 23.2563 17.79 22.82 17.79H4.18ZM3.389 11.806C3.38955 11.3694 3.74337 11.0156 4.18 11.015H7.569C8.00563 11.0156 8.35945 11.3694 8.36 11.806V15.195C8.35945 15.6317 8.00563 15.9855 7.569 15.986H4.18C3.74337 15.9855 3.38955 15.6317 3.389 15.195V11.806ZM10.96 14.4C10.5237 14.4 10.17 14.7537 10.17 15.19C10.17 15.6263 10.5237 15.98 10.96 15.98H22.82C23.2563 15.98 23.61 15.6263 23.61 15.19C23.61 14.7537 23.2563 14.4 22.82 14.4H10.96ZM10.17 11.801C10.17 11.3647 10.5237 11.011 10.96 11.011H22.82C23.2563 11.011 23.61 11.3647 23.61 11.801C23.61 12.2373 23.2563 12.591 22.82 12.591H10.96C10.5237 12.591 10.17 12.2373 10.17 11.801Z" fill="white"/>
<path fill-rule="evenodd" clip-rule="evenodd" d="M0 6.778H27V6.776V2.909C26.9978 1.30332 25.6967 0.00220334 24.091 0H2.909C1.30293 0.00220454 0.00165253 1.30393 0 2.91V6.778ZM6.778 4.181C6.778 3.74414 7.13214 3.39 7.569 3.39H19.431C19.8679 3.39 20.222 3.74414 20.222 4.181C20.222 4.61786 19.8679 4.972 19.431 4.972H7.569C7.13214 4.972 6.778 4.61786 6.778 4.181Z" fill="white"/>
</svg>
