<svg width="29" height="29" viewBox="0 0 29 29" fill="none" xmlns="http://www.w3.org/2000/svg">
<path fill-rule="evenodd" clip-rule="evenodd" d="M17.982 2.70189C22.1425 6.35958 22.8713 12.5675 19.6712 17.0894L27.5312 24.8929C27.5612 24.9212 27.5876 24.9476 27.6141 24.9759C28.4762 25.8837 28.439 27.3185 27.5312 28.1806C26.6233 29.0426 25.1885 29.0055 24.3265 28.0976L16.3412 20.1565C11.5719 22.9747 5.44473 21.7389 2.14082 17.2922C-1.16309 12.8456 -0.578077 6.62247 3.49664 2.86949C7.57136 -0.883481 13.8215 -0.955797 17.982 2.70189ZM3.83824 10.8424C3.84019 14.6992 6.96785 17.8245 10.8247 17.8235C12.6779 17.8226 14.4549 17.0854 15.7645 15.7741C17.0741 14.4629 17.8091 12.685 17.8076 10.8318C17.8037 6.97491 14.6745 3.8512 10.8177 3.85412C6.9608 3.85704 3.83629 6.98549 3.83824 10.8424Z" fill="#2CA062"/>
</svg>
