<svg width="12" height="12" viewBox="0 0 12 12" fill="none" xmlns="http://www.w3.org/2000/svg">
<path d="M7.32198 6L11.809 1.513C12.0648 1.25656 12.0648 0.841444 11.809 0.585L11.415 0.192C11.1583 -0.0632677 10.7437 -0.0632677 10.487 0.192L5.99998 4.678L1.51298 0.192C1.25631 -0.0632677 0.841655 -0.0632677 0.584984 0.192L0.191984 0.584C-0.0638321 0.840444 -0.0638321 1.25556 0.191984 1.512L4.67898 6L0.191984 10.484C-0.0632835 10.7407 -0.0632835 11.1553 0.191984 11.412L0.584984 11.805C0.841655 12.0603 1.25631 12.0603 1.51298 11.805L5.99998 7.321L10.487 11.808C10.6098 11.9315 10.7769 12.0006 10.951 12C11.1251 12.0006 11.2922 11.9315 11.415 11.808L11.808 11.415C12.0633 11.1583 12.0633 10.7437 11.808 10.487L7.32198 6Z" fill="#CCCCCC"/>
</svg>
