<svg width="30" height="30" viewBox="0 0 30 30" fill="none" xmlns="http://www.w3.org/2000/svg">
<path fill-rule="evenodd" clip-rule="evenodd" d="M26.9884 11.0829L29.2941 11.5842C29.7061 11.6739 30 12.0385 30 12.4601V17.5399C30 17.9615 29.7061 18.3261 29.2941 18.4158L26.9884 18.9171C26.7879 19.5309 26.5395 20.1297 26.2463 20.7065L27.5228 22.692C27.7508 23.0468 27.7007 23.5126 27.4026 23.8106L23.8106 27.4026C23.5126 27.7009 23.0468 27.7508 22.692 27.5228L20.7065 26.2463C20.1297 26.5395 19.5309 26.7879 18.9171 26.9884L18.4158 29.2941C18.3263 29.7061 17.9615 30 17.5399 30H12.4601C12.0385 30 11.6737 29.7061 11.5842 29.2941L11.0829 26.9884C10.4691 26.7879 9.8703 26.5395 9.29352 26.2463L7.30797 27.5228C6.9532 27.7508 6.48743 27.7007 6.18942 27.4026L2.59735 23.8106C2.29935 23.5126 2.24922 23.0468 2.47719 22.692L3.75366 20.7065C3.46046 20.1297 3.21213 19.5309 3.01163 18.9171L0.705872 18.4158C0.293884 18.3261 0 17.9615 0 17.5399V12.4601C0 12.0385 0.293884 11.6739 0.705872 11.5842L3.01163 11.0829C3.21213 10.4691 3.46046 9.8703 3.75366 9.29352L2.47719 7.30797C2.24922 6.9532 2.29935 6.48743 2.59735 6.18942L6.18942 2.59735C6.48743 2.29935 6.9532 2.24922 7.30797 2.47719L9.29352 3.75366C9.8703 3.46046 10.4691 3.21213 11.0829 3.01163L11.5842 0.705872C11.6737 0.293884 12.0385 0 12.4601 0H17.5399C17.9615 0 18.3263 0.293884 18.4158 0.705872L18.9171 3.01163C19.5309 3.21213 20.1297 3.46046 20.7065 3.75366L22.692 2.47719C23.0468 2.24922 23.5126 2.29935 23.8106 2.59735L27.4026 6.18942C27.7007 6.48743 27.7508 6.9532 27.5228 7.30797L26.2463 9.29352C26.5395 9.8703 26.7879 10.4691 26.9884 11.0829ZM15 20.3785C17.9656 20.3785 20.3785 17.9656 20.3785 15C20.3785 12.0344 17.9656 9.62151 15 9.62151C12.0344 9.62151 9.62151 12.0344 9.62151 15C9.62151 17.9656 12.0344 20.3785 15 20.3785Z" fill="#555555"/>
</svg>
