<svg width="30" height="30" viewBox="0 0 30 30" fill="none" xmlns="http://www.w3.org/2000/svg">
<path fill-rule="evenodd" clip-rule="evenodd" d="M15 0C23.2843 0 30 6.71573 30 15C30 23.2843 23.2843 30 15 30C6.71573 30 0 23.2843 0 15C0 6.71573 6.71573 0 15 0ZM15.1656 20.5079C14.2744 20.5079 13.5519 21.2304 13.5519 22.1216C13.5519 23.0128 14.2744 23.7353 15.1656 23.7353C16.0568 23.7353 16.7793 23.0128 16.7793 22.1216C16.7793 21.2304 16.0568 20.5079 15.1656 20.5079ZM15.17 6C12.3147 6 10 8.31469 10 11.17C10 11.8832 10.5782 12.4614 11.2914 12.4614C11.96 12.4614 12.51 11.9532 12.5761 11.302L12.5828 11.17C12.5828 9.74356 13.7392 8.5872 15.1656 8.5872C16.592 8.5872 17.7484 9.74356 17.7484 11.17C17.7484 12.5964 16.592 13.7528 15.1656 13.7528C14.8231 13.7528 14.4946 13.8889 14.2524 14.131C14.0449 14.3386 13.9152 14.6096 13.8824 14.8985L13.8742 15.0442V18.2727L13.8809 18.4047C13.947 19.0559 14.497 19.5641 15.1656 19.5641C15.8342 19.5641 16.3842 19.0559 16.4503 18.4047L16.457 18.2727V16.1717L16.6763 16.1092C19.0633 15.3724 20.5942 13.021 20.2779 10.521C19.9616 8.02097 17.8932 6.12501 15.398 6.0059L15.17 6Z" fill="#555555"/>
</svg>
