<svg width="13" height="17" viewBox="0 0 13 17" fill="none" xmlns="http://www.w3.org/2000/svg">
<path fill-rule="evenodd" clip-rule="evenodd" d="M4.65601 16.2077C4.95487 16.7015 5.49086 17.0022 6.068 17C6.64514 17.0022 7.18113 16.7015 7.47999 16.2077C9.60416 12.7327 12.136 8.15256 12.136 6.068C12.136 2.71674 9.41926 0 6.068 0C2.71674 0 0 2.71674 0 6.068C0 8.15256 2.53184 12.7327 4.65601 16.2077ZM3.81123 4.71812C4.18931 3.80534 5.08001 3.21019 6.068 3.21019C7.41651 3.21155 8.50935 4.3044 8.51072 5.6529C8.51072 6.64089 7.91557 7.53159 7.00279 7.90968C6.09001 8.28776 5.03935 8.07878 4.34074 7.38017C3.64213 6.68155 3.43314 5.6309 3.81123 4.71812Z" fill="#2CA062"/>
</svg>
