<svg width="63" height="21" viewBox="0 0 63 21" fill="none" xmlns="http://www.w3.org/2000/svg">
<path d="M25.1383 1.04871L21.9476 19.7728H27.0506L30.2439 1.04871H25.1383Z" fill="white"/>
<path d="M17.6688 1.06967L12.6708 13.839L12.138 11.9109C11.1523 9.5878 8.35404 6.25142 5.06885 4.1488L9.63897 19.7636L15.0386 19.7544L23.075 1.06573L17.6688 1.06967Z" fill="white"/>
<path d="M10.2008 2.40974C9.90413 1.26917 9.04444 0.929237 7.97738 0.88855H0.065625L0 1.2613C6.15694 2.75492 10.2309 6.3538 11.9214 10.6811L10.2008 2.40974Z" fill="white"/>
<path d="M40.5864 4.63836C42.2559 4.61211 43.466 4.97699 44.4058 5.35499L44.8665 5.57155L45.5568 1.5133C44.5462 1.13399 42.962 0.727112 40.9854 0.727112C35.9428 0.727112 32.3885 3.2668 32.361 6.90636C32.3281 9.59567 34.8928 11.0972 36.83 11.9936C38.8185 12.9124 39.4852 13.4964 39.476 14.3167C39.4603 15.5702 37.8905 16.145 36.4245 16.145C34.3809 16.145 33.2955 15.8629 31.6194 15.1646L30.9618 14.8654L30.2439 19.0562C31.4383 19.5799 33.642 20.0301 35.9296 20.0537C41.2938 20.0537 44.7798 17.5442 44.8166 13.6552C44.8389 11.5277 43.4778 9.90411 40.5286 8.57192C38.7436 7.70305 37.6516 7.12555 37.6621 6.2488C37.6621 5.47049 38.5888 4.63836 40.5864 4.63836Z" fill="white"/>
<path fill-rule="evenodd" clip-rule="evenodd" d="M54.7102 1.0697H58.653L62.7821 19.7833H58.0479C58.0479 19.7833 57.578 17.6321 57.4258 16.9785C57.0333 16.9785 55.3901 16.9763 53.8431 16.9742C52.467 16.9724 51.167 16.9706 50.8908 16.9706C50.6927 17.476 49.8185 19.7833 49.8185 19.7833H44.4596L52.0367 2.6237C52.5748 1.40308 53.4857 1.0697 54.7102 1.0697ZM54.3926 7.9052C54.3926 7.9052 52.7795 12.0632 52.3595 13.1381H56.5989L55.4163 7.73195L55.0725 6.11758C54.9434 6.46234 54.7714 6.90981 54.6325 7.27101C54.4874 7.64822 54.3785 7.93135 54.3926 7.9052Z" fill="white"/>
</svg>
